<svg width="664" height="153" viewBox="0 0 664 153" fill="none" xmlns="http://www.w3.org/2000/svg">
<path d="M70 20C70 8.9543 78.9543 0 90 0H557C568.046 0 577 8.95431 577 20V84H90C78.9543 84 70 75.0457 70 64V20Z" fill="#FFEFCC"/>
<path d="M119.94 32.54C120.993 32.54 121.893 32.72 122.64 33.08C123.387 33.4267 123.96 33.9333 124.36 34.6C124.773 35.2667 124.98 36.0733 124.98 37.02C124.98 37.5933 124.893 38.16 124.72 38.72C124.547 39.2667 124.267 39.7667 123.88 40.22C123.507 40.66 123.013 41.0133 122.4 41.28C121.787 41.5467 121.04 41.68 120.16 41.68H118.02V47H116.08V32.54H119.94ZM120.14 39.82C120.713 39.82 121.187 39.7267 121.56 39.54C121.933 39.3533 122.227 39.12 122.44 38.84C122.653 38.5467 122.807 38.24 122.9 37.92C122.993 37.6 123.04 37.3133 123.04 37.06C123.04 36.7667 122.993 36.4667 122.9 36.16C122.807 35.84 122.647 35.5533 122.42 35.3C122.207 35.0333 121.92 34.82 121.56 34.66C121.213 34.4867 120.78 34.4 120.26 34.4H118.02V39.82H120.14ZM127.515 31.52H129.375V47H127.515V31.52ZM136.433 47.2C135.486 47.2 134.673 47.0133 133.993 46.64C133.313 46.2533 132.786 45.7333 132.413 45.08C132.053 44.4133 131.873 43.6533 131.873 42.8C131.873 41.9867 132.079 41.2467 132.493 40.58C132.906 39.9133 133.459 39.38 134.153 38.98C134.846 38.58 135.619 38.38 136.473 38.38C137.566 38.38 138.473 38.7 139.193 39.34C139.913 39.98 140.399 40.86 140.653 41.98L133.833 44.38L133.393 43.28L138.993 41.24L138.593 41.5C138.433 41.06 138.166 40.68 137.793 40.36C137.419 40.0267 136.933 39.86 136.333 39.86C135.826 39.86 135.373 39.9867 134.973 40.24C134.573 40.48 134.259 40.8133 134.033 41.24C133.806 41.6667 133.693 42.1533 133.693 42.7C133.693 43.2733 133.813 43.78 134.053 44.22C134.293 44.6467 134.619 44.9867 135.033 45.24C135.459 45.48 135.939 45.6 136.473 45.6C136.833 45.6 137.179 45.5333 137.513 45.4C137.859 45.2667 138.179 45.0933 138.473 44.88L139.333 46.26C138.919 46.54 138.453 46.7667 137.933 46.94C137.426 47.1133 136.926 47.2 136.433 47.2ZM146.423 47.2C145.65 47.2 144.943 47.0333 144.303 46.7C143.677 46.3667 143.177 45.88 142.803 45.24C142.443 44.5867 142.263 43.7933 142.263 42.86C142.263 41.94 142.457 41.1467 142.843 40.48C143.23 39.8 143.743 39.28 144.383 38.92C145.037 38.56 145.75 38.38 146.523 38.38C147.297 38.38 147.95 38.56 148.483 38.92C149.017 39.2667 149.423 39.68 149.703 40.16L149.583 40.48L149.763 38.72H151.483V47H149.623V44.84L149.823 45.32C149.77 45.4533 149.65 45.6267 149.463 45.84C149.29 46.04 149.05 46.2467 148.743 46.46C148.45 46.6733 148.11 46.8533 147.723 47C147.337 47.1333 146.903 47.2 146.423 47.2ZM146.923 45.66C147.39 45.66 147.81 45.5733 148.183 45.4C148.557 45.2267 148.863 44.9867 149.103 44.68C149.357 44.36 149.53 43.98 149.623 43.54V41.92C149.517 41.52 149.33 41.1733 149.063 40.88C148.797 40.5733 148.477 40.34 148.103 40.18C147.73 40.0067 147.317 39.92 146.863 39.92C146.37 39.92 145.917 40.04 145.503 40.28C145.09 40.52 144.757 40.8533 144.503 41.28C144.263 41.7067 144.143 42.2067 144.143 42.78C144.143 43.3133 144.27 43.8 144.523 44.24C144.777 44.68 145.117 45.0267 145.543 45.28C145.97 45.5333 146.43 45.66 146.923 45.66ZM157.022 47.16C156.435 47.16 155.862 47.06 155.302 46.86C154.755 46.6467 154.302 46.3333 153.942 45.92L154.722 44.84C155.069 45.1733 155.422 45.4267 155.782 45.6C156.155 45.76 156.522 45.84 156.882 45.84C157.149 45.84 157.395 45.8067 157.622 45.74C157.849 45.6733 158.029 45.5667 158.162 45.42C158.309 45.26 158.382 45.0467 158.382 44.78C158.382 44.4867 158.282 44.2533 158.082 44.08C157.895 43.9067 157.649 43.7667 157.342 43.66C157.049 43.5533 156.735 43.4533 156.402 43.36C155.722 43.1333 155.202 42.82 154.842 42.42C154.482 42.02 154.302 41.5333 154.302 40.96C154.302 40.52 154.409 40.1133 154.622 39.74C154.849 39.3533 155.175 39.04 155.602 38.8C156.042 38.56 156.582 38.44 157.222 38.44C157.795 38.44 158.309 38.5133 158.762 38.66C159.215 38.7933 159.642 39.02 160.042 39.34L159.302 40.5C159.062 40.2467 158.775 40.06 158.442 39.94C158.109 39.82 157.809 39.7533 157.542 39.74C157.315 39.7267 157.095 39.76 156.882 39.84C156.682 39.92 156.515 40.0333 156.382 40.18C156.249 40.3267 156.182 40.5 156.182 40.7C156.182 40.98 156.275 41.2067 156.462 41.38C156.649 41.5533 156.889 41.6933 157.182 41.8C157.489 41.8933 157.789 41.9933 158.082 42.1C158.495 42.22 158.862 42.38 159.182 42.58C159.502 42.78 159.755 43.0267 159.942 43.32C160.142 43.6133 160.242 43.98 160.242 44.42C160.242 44.9133 160.122 45.3733 159.882 45.8C159.655 46.2133 159.302 46.5467 158.822 46.8C158.355 47.04 157.755 47.16 157.022 47.16ZM166.687 47.2C165.74 47.2 164.927 47.0133 164.247 46.64C163.567 46.2533 163.04 45.7333 162.667 45.08C162.307 44.4133 162.127 43.6533 162.127 42.8C162.127 41.9867 162.333 41.2467 162.747 40.58C163.16 39.9133 163.713 39.38 164.407 38.98C165.1 38.58 165.873 38.38 166.727 38.38C167.82 38.38 168.727 38.7 169.447 39.34C170.167 39.98 170.653 40.86 170.907 41.98L164.087 44.38L163.647 43.28L169.247 41.24L168.847 41.5C168.687 41.06 168.42 40.68 168.047 40.36C167.673 40.0267 167.187 39.86 166.587 39.86C166.08 39.86 165.627 39.9867 165.227 40.24C164.827 40.48 164.513 40.8133 164.287 41.24C164.06 41.6667 163.947 42.1533 163.947 42.7C163.947 43.2733 164.067 43.78 164.307 44.22C164.547 44.6467 164.873 44.9867 165.287 45.24C165.713 45.48 166.193 45.6 166.727 45.6C167.087 45.6 167.433 45.5333 167.767 45.4C168.113 45.2667 168.433 45.0933 168.727 44.88L169.587 46.26C169.173 46.54 168.707 46.7667 168.187 46.94C167.68 47.1133 167.18 47.2 166.687 47.2ZM184.865 38.72L187.305 44.3L186.945 44.34L189.225 38.72H191.045L187.245 47.5L184.585 41.82L182.165 47.5L178.325 38.72H180.145L182.725 44.56L182.085 44.44L183.925 40.16L183.265 38.72H184.865ZM194.702 38.72L194.882 41.12L194.782 40.8C194.995 40.2933 195.302 39.8667 195.702 39.52C196.115 39.16 196.542 38.8867 196.982 38.7C197.435 38.5 197.829 38.4 198.162 38.4L198.062 40.24C197.435 40.2 196.882 40.32 196.402 40.6C195.935 40.88 195.562 41.2533 195.282 41.72C195.015 42.1867 194.882 42.6867 194.882 43.22V47H193.042V38.72H194.702ZM200.561 38.72H202.421V47H200.561V38.72ZM200.421 35.72C200.421 35.4267 200.535 35.18 200.761 34.98C201.001 34.78 201.261 34.68 201.541 34.68C201.821 34.68 202.068 34.78 202.281 34.98C202.508 35.18 202.621 35.4267 202.621 35.72C202.621 36.0267 202.508 36.28 202.281 36.48C202.068 36.6667 201.821 36.76 201.541 36.76C201.261 36.76 201.001 36.66 200.761 36.46C200.535 36.26 200.421 36.0133 200.421 35.72ZM206.44 35.08H208.3V38.76H210.58V40.22H208.3V47H206.44V40.22H204.92V38.76H206.44V35.08ZM216.667 47.2C215.72 47.2 214.907 47.0133 214.227 46.64C213.547 46.2533 213.02 45.7333 212.647 45.08C212.287 44.4133 212.107 43.6533 212.107 42.8C212.107 41.9867 212.314 41.2467 212.727 40.58C213.14 39.9133 213.694 39.38 214.387 38.98C215.08 38.58 215.854 38.38 216.707 38.38C217.8 38.38 218.707 38.7 219.427 39.34C220.147 39.98 220.634 40.86 220.887 41.98L214.067 44.38L213.627 43.28L219.227 41.24L218.827 41.5C218.667 41.06 218.4 40.68 218.027 40.36C217.654 40.0267 217.167 39.86 216.567 39.86C216.06 39.86 215.607 39.9867 215.207 40.24C214.807 40.48 214.494 40.8133 214.267 41.24C214.04 41.6667 213.927 42.1533 213.927 42.7C213.927 43.2733 214.047 43.78 214.287 44.22C214.527 44.6467 214.854 44.9867 215.267 45.24C215.694 45.48 216.174 45.6 216.707 45.6C217.067 45.6 217.414 45.5333 217.747 45.4C218.094 45.2667 218.414 45.0933 218.707 44.88L219.567 46.26C219.154 46.54 218.687 46.7667 218.167 46.94C217.66 47.1133 217.16 47.2 216.667 47.2ZM232.166 47.32C231.419 47.32 230.799 47.0933 230.306 46.64C229.826 46.1733 229.572 45.5733 229.546 44.84V38.72H231.406V44.18C231.432 44.6333 231.559 45 231.786 45.28C232.026 45.56 232.399 45.7067 232.906 45.72C233.372 45.72 233.786 45.5867 234.146 45.32C234.519 45.04 234.819 44.6667 235.046 44.2C235.272 43.72 235.386 43.18 235.386 42.58V38.72H237.246V47H235.546L235.386 44.96L235.486 45.32C235.326 45.7067 235.079 46.0533 234.746 46.36C234.426 46.6533 234.046 46.8867 233.606 47.06C233.166 47.2333 232.686 47.32 232.166 47.32ZM242.784 47.16C242.197 47.16 241.624 47.06 241.064 46.86C240.517 46.6467 240.064 46.3333 239.704 45.92L240.484 44.84C240.83 45.1733 241.184 45.4267 241.544 45.6C241.917 45.76 242.284 45.84 242.644 45.84C242.91 45.84 243.157 45.8067 243.384 45.74C243.61 45.6733 243.79 45.5667 243.924 45.42C244.07 45.26 244.144 45.0467 244.144 44.78C244.144 44.4867 244.044 44.2533 243.844 44.08C243.657 43.9067 243.41 43.7667 243.104 43.66C242.81 43.5533 242.497 43.4533 242.164 43.36C241.484 43.1333 240.964 42.82 240.604 42.42C240.244 42.02 240.064 41.5333 240.064 40.96C240.064 40.52 240.17 40.1133 240.384 39.74C240.61 39.3533 240.937 39.04 241.364 38.8C241.804 38.56 242.344 38.44 242.984 38.44C243.557 38.44 244.07 38.5133 244.524 38.66C244.977 38.7933 245.404 39.02 245.804 39.34L245.064 40.5C244.824 40.2467 244.537 40.06 244.204 39.94C243.87 39.82 243.57 39.7533 243.304 39.74C243.077 39.7267 242.857 39.76 242.644 39.84C242.444 39.92 242.277 40.0333 242.144 40.18C242.01 40.3267 241.944 40.5 241.944 40.7C241.944 40.98 242.037 41.2067 242.224 41.38C242.41 41.5533 242.65 41.6933 242.944 41.8C243.25 41.8933 243.55 41.9933 243.844 42.1C244.257 42.22 244.624 42.38 244.944 42.58C245.264 42.78 245.517 43.0267 245.704 43.32C245.904 43.6133 246.004 43.98 246.004 44.42C246.004 44.9133 245.884 45.3733 245.644 45.8C245.417 46.2133 245.064 46.5467 244.584 46.8C244.117 47.04 243.517 47.16 242.784 47.16ZM255.636 50.98L261.096 38.72H262.816L257.476 50.98H255.636ZM257.676 47.06L253.696 38.72H255.796L259.136 46.12L257.676 47.06ZM263.845 42.78C263.845 41.9533 264.039 41.2067 264.425 40.54C264.825 39.8733 265.372 39.3467 266.065 38.96C266.759 38.5733 267.545 38.38 268.425 38.38C269.332 38.38 270.125 38.5733 270.805 38.96C271.485 39.3467 272.012 39.8733 272.385 40.54C272.759 41.2067 272.945 41.9533 272.945 42.78C272.945 43.6067 272.759 44.36 272.385 45.04C272.012 45.7067 271.479 46.2333 270.785 46.62C270.105 47.0067 269.312 47.2 268.405 47.2C267.525 47.2 266.739 47.02 266.045 46.66C265.365 46.2867 264.825 45.7733 264.425 45.12C264.039 44.4533 263.845 43.6733 263.845 42.78ZM265.705 42.8C265.705 43.3333 265.825 43.82 266.065 44.26C266.305 44.6867 266.625 45.0267 267.025 45.28C267.439 45.5333 267.892 45.66 268.385 45.66C268.905 45.66 269.365 45.5333 269.765 45.28C270.179 45.0267 270.499 44.6867 270.725 44.26C270.952 43.82 271.065 43.3333 271.065 42.8C271.065 42.2667 270.952 41.7867 270.725 41.36C270.499 40.92 270.179 40.5733 269.765 40.32C269.365 40.0533 268.905 39.92 268.385 39.92C267.879 39.92 267.419 40.0533 267.005 40.32C266.605 40.5867 266.285 40.94 266.045 41.38C265.819 41.8067 265.705 42.28 265.705 42.8ZM278.084 47.32C277.337 47.32 276.717 47.0933 276.224 46.64C275.744 46.1733 275.49 45.5733 275.464 44.84V38.72H277.324V44.18C277.35 44.6333 277.477 45 277.704 45.28C277.944 45.56 278.317 45.7067 278.824 45.72C279.29 45.72 279.704 45.5867 280.064 45.32C280.437 45.04 280.737 44.6667 280.964 44.2C281.19 43.72 281.304 43.18 281.304 42.58V38.72H283.164V47H281.464L281.304 44.96L281.404 45.32C281.244 45.7067 280.997 46.0533 280.664 46.36C280.344 46.6533 279.964 46.8867 279.524 47.06C279.084 47.2333 278.604 47.32 278.084 47.32ZM288.042 38.72L288.222 41.12L288.122 40.8C288.335 40.2933 288.642 39.8667 289.042 39.52C289.455 39.16 289.882 38.8867 290.322 38.7C290.775 38.5 291.168 38.4 291.502 38.4L291.402 40.24C290.775 40.2 290.222 40.32 289.742 40.6C289.275 40.88 288.902 41.2533 288.622 41.72C288.355 42.1867 288.222 42.6867 288.222 43.22V47H286.382V38.72H288.042ZM300.909 47V40.38H299.489V38.72H300.909V35.22C300.909 34.02 301.176 33.1 301.709 32.46C302.256 31.82 303.056 31.5 304.109 31.5C304.389 31.5 304.696 31.54 305.029 31.62C305.376 31.7 305.676 31.8333 305.929 32.02L305.149 33.36C305.029 33.24 304.896 33.16 304.749 33.12C304.603 33.0667 304.456 33.04 304.309 33.04C303.816 33.04 303.436 33.2067 303.169 33.54C302.903 33.8733 302.769 34.44 302.769 35.24V38.72H305.389V40.38H302.769V47H300.909ZM311.198 47.2C310.252 47.2 309.438 47.0133 308.758 46.64C308.078 46.2533 307.552 45.7333 307.178 45.08C306.818 44.4133 306.638 43.6533 306.638 42.8C306.638 41.9867 306.845 41.2467 307.258 40.58C307.672 39.9133 308.225 39.38 308.918 38.98C309.612 38.58 310.385 38.38 311.238 38.38C312.332 38.38 313.238 38.7 313.958 39.34C314.678 39.98 315.165 40.86 315.418 41.98L308.598 44.38L308.158 43.28L313.758 41.24L313.358 41.5C313.198 41.06 312.932 40.68 312.558 40.36C312.185 40.0267 311.698 39.86 311.098 39.86C310.592 39.86 310.138 39.9867 309.738 40.24C309.338 40.48 309.025 40.8133 308.798 41.24C308.572 41.6667 308.458 42.1533 308.458 42.7C308.458 43.2733 308.578 43.78 308.818 44.22C309.058 44.6467 309.385 44.9867 309.798 45.24C310.225 45.48 310.705 45.6 311.238 45.6C311.598 45.6 311.945 45.5333 312.278 45.4C312.625 45.2667 312.945 45.0933 313.238 44.88L314.098 46.26C313.685 46.54 313.218 46.7667 312.698 46.94C312.192 47.1133 311.692 47.2 311.198 47.2ZM321.589 47.2C320.642 47.2 319.829 47.0133 319.149 46.64C318.469 46.2533 317.942 45.7333 317.569 45.08C317.209 44.4133 317.029 43.6533 317.029 42.8C317.029 41.9867 317.236 41.2467 317.649 40.58C318.062 39.9133 318.616 39.38 319.309 38.98C320.002 38.58 320.776 38.38 321.629 38.38C322.722 38.38 323.629 38.7 324.349 39.34C325.069 39.98 325.556 40.86 325.809 41.98L318.989 44.38L318.549 43.28L324.149 41.24L323.749 41.5C323.589 41.06 323.322 40.68 322.949 40.36C322.576 40.0267 322.089 39.86 321.489 39.86C320.982 39.86 320.529 39.9867 320.129 40.24C319.729 40.48 319.416 40.8133 319.189 41.24C318.962 41.6667 318.849 42.1533 318.849 42.7C318.849 43.2733 318.969 43.78 319.209 44.22C319.449 44.6467 319.776 44.9867 320.189 45.24C320.616 45.48 321.096 45.6 321.629 45.6C321.989 45.6 322.336 45.5333 322.669 45.4C323.016 45.2667 323.336 45.0933 323.629 44.88L324.489 46.26C324.076 46.54 323.609 46.7667 323.089 46.94C322.582 47.1133 322.082 47.2 321.589 47.2ZM331.5 47.2C330.74 47.2 330.046 47.02 329.42 46.66C328.806 46.2867 328.32 45.7667 327.96 45.1C327.6 44.42 327.42 43.64 327.42 42.76C327.42 41.84 327.606 41.0533 327.98 40.4C328.366 39.7467 328.886 39.2467 329.54 38.9C330.193 38.5533 330.926 38.38 331.74 38.38C332.393 38.38 333.013 38.52 333.6 38.8C334.2 39.08 334.666 39.4667 335 39.96L334.92 40.62V31.52H336.76V47H334.9V44.94L335.1 45.46C334.713 45.9667 334.213 46.3867 333.6 46.72C332.986 47.04 332.286 47.2 331.5 47.2ZM332.08 45.62C332.573 45.62 333.013 45.5333 333.4 45.36C333.786 45.1733 334.106 44.92 334.36 44.6C334.613 44.28 334.793 43.9 334.9 43.46V41.9C334.793 41.5 334.6 41.1533 334.32 40.86C334.053 40.5533 333.726 40.3133 333.34 40.14C332.966 39.9533 332.546 39.86 332.08 39.86C331.573 39.86 331.106 39.9867 330.68 40.24C330.266 40.48 329.933 40.8133 329.68 41.24C329.426 41.6667 329.3 42.16 329.3 42.72C329.3 43.2667 329.426 43.76 329.68 44.2C329.933 44.6267 330.273 44.9733 330.7 45.24C331.126 45.4933 331.586 45.62 332.08 45.62ZM345.035 47.2C344.275 47.2 343.602 47.0333 343.015 46.7C342.442 46.3667 341.982 45.9467 341.635 45.44L341.855 44.86V47H339.995V31.52H341.835V40.62L341.775 39.92C342.108 39.4667 342.582 39.1 343.195 38.82C343.822 38.5267 344.515 38.38 345.275 38.38C346.022 38.38 346.702 38.56 347.315 38.92C347.928 39.28 348.415 39.7867 348.775 40.44C349.148 41.08 349.335 41.8467 349.335 42.74C349.335 43.6733 349.135 44.4733 348.735 45.14C348.348 45.8067 347.828 46.32 347.175 46.68C346.522 47.0267 345.808 47.2 345.035 47.2ZM344.655 45.62C345.188 45.62 345.668 45.4933 346.095 45.24C346.522 44.9867 346.855 44.6467 347.095 44.22C347.335 43.78 347.455 43.28 347.455 42.72C347.455 42.1867 347.328 41.7067 347.075 41.28C346.835 40.84 346.502 40.4933 346.075 40.24C345.662 39.9867 345.188 39.86 344.655 39.86C344.202 39.86 343.782 39.9467 343.395 40.12C343.008 40.2933 342.682 40.5333 342.415 40.84C342.148 41.1333 341.962 41.48 341.855 41.88V43.54C341.962 43.94 342.142 44.3 342.395 44.62C342.648 44.9267 342.968 45.1733 343.355 45.36C343.742 45.5333 344.175 45.62 344.655 45.62ZM355.29 47.2C354.517 47.2 353.81 47.0333 353.17 46.7C352.544 46.3667 352.044 45.88 351.67 45.24C351.31 44.5867 351.13 43.7933 351.13 42.86C351.13 41.94 351.324 41.1467 351.71 40.48C352.097 39.8 352.61 39.28 353.25 38.92C353.904 38.56 354.617 38.38 355.39 38.38C356.164 38.38 356.817 38.56 357.35 38.92C357.884 39.2667 358.29 39.68 358.57 40.16L358.45 40.48L358.63 38.72H360.35V47H358.49V44.84L358.69 45.32C358.637 45.4533 358.517 45.6267 358.33 45.84C358.157 46.04 357.917 46.2467 357.61 46.46C357.317 46.6733 356.977 46.8533 356.59 47C356.204 47.1333 355.77 47.2 355.29 47.2ZM355.79 45.66C356.257 45.66 356.677 45.5733 357.05 45.4C357.424 45.2267 357.73 44.9867 357.97 44.68C358.224 44.36 358.397 43.98 358.49 43.54V41.92C358.384 41.52 358.197 41.1733 357.93 40.88C357.664 40.5733 357.344 40.34 356.97 40.18C356.597 40.0067 356.184 39.92 355.73 39.92C355.237 39.92 354.784 40.04 354.37 40.28C353.957 40.52 353.624 40.8533 353.37 41.28C353.13 41.7067 353.01 42.2067 353.01 42.78C353.01 43.3133 353.137 43.8 353.39 44.24C353.644 44.68 353.984 45.0267 354.41 45.28C354.837 45.5333 355.297 45.66 355.79 45.66ZM370.289 46.24C369.916 46.5333 369.469 46.7667 368.949 46.94C368.429 47.1133 367.909 47.2 367.389 47.2C366.483 47.2 365.689 47.02 365.009 46.66C364.329 46.3 363.796 45.8 363.409 45.16C363.036 44.5067 362.849 43.74 362.849 42.86C362.849 41.98 363.049 41.2133 363.449 40.56C363.863 39.9067 364.396 39.4067 365.049 39.06C365.716 38.7 366.429 38.52 367.189 38.52C367.856 38.52 368.449 38.6133 368.969 38.8C369.503 38.9867 369.956 39.24 370.329 39.56L369.409 40.76C369.169 40.5733 368.876 40.4067 368.529 40.26C368.183 40.1133 367.789 40.04 367.349 40.04C366.869 40.04 366.423 40.1667 366.009 40.42C365.609 40.66 365.289 40.9933 365.049 41.42C364.823 41.8467 364.709 42.3267 364.709 42.86C364.709 43.3667 364.829 43.84 365.069 44.28C365.309 44.7067 365.643 45.0467 366.069 45.3C366.496 45.54 366.983 45.66 367.529 45.66C367.889 45.66 368.216 45.6067 368.509 45.5C368.816 45.3933 369.089 45.2467 369.329 45.06L370.289 46.24ZM372.69 47V31.52H374.55V47H372.69ZM376.55 41.5L380.35 47H378.17L375.31 42.54L376.55 41.5ZM373.97 44.36L373.79 42.58L378.81 38.54L379.95 39.52L373.97 44.36ZM392.419 47.2C391.646 47.2 390.939 47.0333 390.299 46.7C389.673 46.3667 389.173 45.88 388.799 45.24C388.439 44.5867 388.259 43.7933 388.259 42.86C388.259 41.94 388.453 41.1467 388.839 40.48C389.226 39.8 389.739 39.28 390.379 38.92C391.033 38.56 391.746 38.38 392.519 38.38C393.293 38.38 393.946 38.56 394.479 38.92C395.013 39.2667 395.419 39.68 395.699 40.16L395.579 40.48L395.759 38.72H397.479V47H395.619V44.84L395.819 45.32C395.766 45.4533 395.646 45.6267 395.459 45.84C395.286 46.04 395.046 46.2467 394.739 46.46C394.446 46.6733 394.106 46.8533 393.719 47C393.333 47.1333 392.899 47.2 392.419 47.2ZM392.919 45.66C393.386 45.66 393.806 45.5733 394.179 45.4C394.553 45.2267 394.859 44.9867 395.099 44.68C395.353 44.36 395.526 43.98 395.619 43.54V41.92C395.513 41.52 395.326 41.1733 395.059 40.88C394.793 40.5733 394.473 40.34 394.099 40.18C393.726 40.0067 393.313 39.92 392.859 39.92C392.366 39.92 391.913 40.04 391.499 40.28C391.086 40.52 390.753 40.8533 390.499 41.28C390.259 41.7067 390.139 42.2067 390.139 42.78C390.139 43.3133 390.266 43.8 390.519 44.24C390.773 44.68 391.113 45.0267 391.539 45.28C391.966 45.5333 392.426 45.66 392.919 45.66ZM402.358 38.72L402.518 40.74L402.438 40.42C402.705 39.8067 403.138 39.32 403.738 38.96C404.338 38.5867 405.031 38.4 405.818 38.4C406.605 38.4 407.245 38.6333 407.738 39.1C408.245 39.5533 408.505 40.1467 408.518 40.88V47H406.638V41.54C406.625 41.0867 406.491 40.72 406.238 40.44C405.998 40.1467 405.618 40 405.098 40C404.618 40 404.185 40.1333 403.798 40.4C403.411 40.6667 403.105 41.0333 402.878 41.5C402.665 41.9667 402.558 42.5067 402.558 43.12V47H400.698V38.72H402.358ZM415.113 47.2C414.353 47.2 413.659 47.02 413.033 46.66C412.419 46.2867 411.933 45.7667 411.573 45.1C411.213 44.42 411.033 43.64 411.033 42.76C411.033 41.84 411.219 41.0533 411.593 40.4C411.979 39.7467 412.499 39.2467 413.153 38.9C413.806 38.5533 414.539 38.38 415.353 38.38C416.006 38.38 416.626 38.52 417.213 38.8C417.813 39.08 418.279 39.4667 418.613 39.96L418.533 40.62V31.52H420.373V47H418.513V44.94L418.713 45.46C418.326 45.9667 417.826 46.3867 417.213 46.72C416.599 47.04 415.899 47.2 415.113 47.2ZM415.693 45.62C416.186 45.62 416.626 45.5333 417.013 45.36C417.399 45.1733 417.719 44.92 417.973 44.6C418.226 44.28 418.406 43.9 418.513 43.46V41.9C418.406 41.5 418.213 41.1533 417.933 40.86C417.666 40.5533 417.339 40.3133 416.953 40.14C416.579 39.9533 416.159 39.86 415.693 39.86C415.186 39.86 414.719 39.9867 414.293 40.24C413.879 40.48 413.546 40.8133 413.293 41.24C413.039 41.6667 412.913 42.16 412.913 42.72C412.913 43.2667 413.039 43.76 413.293 44.2C413.546 44.6267 413.886 44.9733 414.313 45.24C414.739 45.4933 415.199 45.62 415.693 45.62ZM432.256 47.16C431.67 47.16 431.096 47.06 430.536 46.86C429.99 46.6467 429.536 46.3333 429.176 45.92L429.956 44.84C430.303 45.1733 430.656 45.4267 431.016 45.6C431.39 45.76 431.756 45.84 432.116 45.84C432.383 45.84 432.63 45.8067 432.856 45.74C433.083 45.6733 433.263 45.5667 433.396 45.42C433.543 45.26 433.616 45.0467 433.616 44.78C433.616 44.4867 433.516 44.2533 433.316 44.08C433.13 43.9067 432.883 43.7667 432.576 43.66C432.283 43.5533 431.97 43.4533 431.636 43.36C430.956 43.1333 430.436 42.82 430.076 42.42C429.716 42.02 429.536 41.5333 429.536 40.96C429.536 40.52 429.643 40.1133 429.856 39.74C430.083 39.3533 430.41 39.04 430.836 38.8C431.276 38.56 431.816 38.44 432.456 38.44C433.03 38.44 433.543 38.5133 433.996 38.66C434.45 38.7933 434.876 39.02 435.276 39.34L434.536 40.5C434.296 40.2467 434.01 40.06 433.676 39.94C433.343 39.82 433.043 39.7533 432.776 39.74C432.55 39.7267 432.33 39.76 432.116 39.84C431.916 39.92 431.75 40.0333 431.616 40.18C431.483 40.3267 431.416 40.5 431.416 40.7C431.416 40.98 431.51 41.2067 431.696 41.38C431.883 41.5533 432.123 41.6933 432.416 41.8C432.723 41.8933 433.023 41.9933 433.316 42.1C433.73 42.22 434.096 42.38 434.416 42.58C434.736 42.78 434.99 43.0267 435.176 43.32C435.376 43.6133 435.476 43.98 435.476 44.42C435.476 44.9133 435.356 45.3733 435.116 45.8C434.89 46.2133 434.536 46.5467 434.056 46.8C433.59 47.04 432.99 47.16 432.256 47.16ZM440.701 47.32C439.954 47.32 439.334 47.0933 438.841 46.64C438.361 46.1733 438.108 45.5733 438.081 44.84V38.72H439.941V44.18C439.968 44.6333 440.094 45 440.321 45.28C440.561 45.56 440.934 45.7067 441.441 45.72C441.908 45.72 442.321 45.5867 442.681 45.32C443.054 45.04 443.354 44.6667 443.581 44.2C443.808 43.72 443.921 43.18 443.921 42.58V38.72H445.781V47H444.081L443.921 44.96L444.021 45.32C443.861 45.7067 443.614 46.0533 443.281 46.36C442.961 46.6533 442.581 46.8867 442.141 47.06C441.701 47.2333 441.221 47.32 440.701 47.32ZM452.979 51.1C452.366 51.1 451.826 51.0267 451.359 50.88C450.892 50.7467 450.466 50.5533 450.079 50.3C449.706 50.0467 449.346 49.76 448.999 49.44L450.079 48.18C450.519 48.5933 450.966 48.9133 451.419 49.14C451.872 49.3667 452.379 49.48 452.939 49.48C453.566 49.48 454.092 49.3733 454.519 49.16C454.959 48.96 455.292 48.6733 455.519 48.3C455.746 47.94 455.859 47.52 455.859 47.04L455.879 44.8L456.039 45.16C455.799 45.7333 455.366 46.22 454.739 46.62C454.112 47.0067 453.352 47.2 452.459 47.2C451.699 47.2 450.999 47.0067 450.359 46.62C449.732 46.2333 449.226 45.7133 448.839 45.06C448.466 44.3933 448.279 43.6467 448.279 42.82C448.279 41.9533 448.479 41.1933 448.879 40.54C449.279 39.8733 449.806 39.3467 450.459 38.96C451.112 38.5733 451.826 38.38 452.599 38.38C453.332 38.38 453.999 38.5333 454.599 38.84C455.212 39.1333 455.659 39.5133 455.939 39.98L455.839 40.32L456.039 38.72H457.739V47.06C457.739 47.8067 457.546 48.4867 457.159 49.1C456.772 49.7133 456.226 50.2 455.519 50.56C454.812 50.92 453.966 51.1 452.979 51.1ZM450.139 42.78C450.139 43.3133 450.266 43.8 450.519 44.24C450.772 44.68 451.112 45.0267 451.539 45.28C451.979 45.5333 452.466 45.66 452.999 45.66C453.492 45.66 453.932 45.5733 454.319 45.4C454.719 45.2133 455.052 44.9667 455.319 44.66C455.586 44.34 455.772 43.9733 455.879 43.56V41.92C455.759 41.52 455.559 41.1733 455.279 40.88C454.999 40.5733 454.666 40.34 454.279 40.18C453.892 40.0067 453.466 39.92 452.999 39.92C452.466 39.92 451.979 40.04 451.539 40.28C451.112 40.52 450.772 40.86 450.519 41.3C450.266 41.7267 450.139 42.22 450.139 42.78ZM464.932 51.1C464.319 51.1 463.779 51.0267 463.312 50.88C462.845 50.7467 462.419 50.5533 462.032 50.3C461.659 50.0467 461.299 49.76 460.952 49.44L462.032 48.18C462.472 48.5933 462.919 48.9133 463.372 49.14C463.825 49.3667 464.332 49.48 464.892 49.48C465.519 49.48 466.045 49.3733 466.472 49.16C466.912 48.96 467.245 48.6733 467.472 48.3C467.699 47.94 467.812 47.52 467.812 47.04L467.832 44.8L467.992 45.16C467.752 45.7333 467.319 46.22 466.692 46.62C466.065 47.0067 465.305 47.2 464.412 47.2C463.652 47.2 462.952 47.0067 462.312 46.62C461.685 46.2333 461.179 45.7133 460.792 45.06C460.419 44.3933 460.232 43.6467 460.232 42.82C460.232 41.9533 460.432 41.1933 460.832 40.54C461.232 39.8733 461.759 39.3467 462.412 38.96C463.065 38.5733 463.779 38.38 464.552 38.38C465.285 38.38 465.952 38.5333 466.552 38.84C467.165 39.1333 467.612 39.5133 467.892 39.98L467.792 40.32L467.992 38.72H469.692V47.06C469.692 47.8067 469.499 48.4867 469.112 49.1C468.725 49.7133 468.179 50.2 467.472 50.56C466.765 50.92 465.919 51.1 464.932 51.1ZM462.092 42.78C462.092 43.3133 462.219 43.8 462.472 44.24C462.725 44.68 463.065 45.0267 463.492 45.28C463.932 45.5333 464.419 45.66 464.952 45.66C465.445 45.66 465.885 45.5733 466.272 45.4C466.672 45.2133 467.005 44.9667 467.272 44.66C467.539 44.34 467.725 43.9733 467.832 43.56V41.92C467.712 41.52 467.512 41.1733 467.232 40.88C466.952 40.5733 466.619 40.34 466.232 40.18C465.845 40.0067 465.419 39.92 464.952 39.92C464.419 39.92 463.932 40.04 463.492 40.28C463.065 40.52 462.725 40.86 462.472 41.3C462.219 41.7267 462.092 42.22 462.092 42.78ZM476.745 47.2C475.798 47.2 474.985 47.0133 474.305 46.64C473.625 46.2533 473.098 45.7333 472.725 45.08C472.365 44.4133 472.185 43.6533 472.185 42.8C472.185 41.9867 472.392 41.2467 472.805 40.58C473.218 39.9133 473.772 39.38 474.465 38.98C475.158 38.58 475.932 38.38 476.785 38.38C477.878 38.38 478.785 38.7 479.505 39.34C480.225 39.98 480.712 40.86 480.965 41.98L474.145 44.38L473.705 43.28L479.305 41.24L478.905 41.5C478.745 41.06 478.478 40.68 478.105 40.36C477.732 40.0267 477.245 39.86 476.645 39.86C476.138 39.86 475.685 39.9867 475.285 40.24C474.885 40.48 474.572 40.8133 474.345 41.24C474.118 41.6667 474.005 42.1533 474.005 42.7C474.005 43.2733 474.125 43.78 474.365 44.22C474.605 44.6467 474.932 44.9867 475.345 45.24C475.772 45.48 476.252 45.6 476.785 45.6C477.145 45.6 477.492 45.5333 477.825 45.4C478.172 45.2667 478.492 45.0933 478.785 44.88L479.645 46.26C479.232 46.54 478.765 46.7667 478.245 46.94C477.738 47.1133 477.238 47.2 476.745 47.2ZM485.616 47.16C485.029 47.16 484.456 47.06 483.896 46.86C483.349 46.6467 482.896 46.3333 482.536 45.92L483.316 44.84C483.662 45.1733 484.016 45.4267 484.376 45.6C484.749 45.76 485.116 45.84 485.476 45.84C485.742 45.84 485.989 45.8067 486.216 45.74C486.442 45.6733 486.622 45.5667 486.756 45.42C486.902 45.26 486.976 45.0467 486.976 44.78C486.976 44.4867 486.876 44.2533 486.676 44.08C486.489 43.9067 486.242 43.7667 485.936 43.66C485.642 43.5533 485.329 43.4533 484.996 43.36C484.316 43.1333 483.796 42.82 483.436 42.42C483.076 42.02 482.896 41.5333 482.896 40.96C482.896 40.52 483.002 40.1133 483.216 39.74C483.442 39.3533 483.769 39.04 484.196 38.8C484.636 38.56 485.176 38.44 485.816 38.44C486.389 38.44 486.902 38.5133 487.356 38.66C487.809 38.7933 488.236 39.02 488.636 39.34L487.896 40.5C487.656 40.2467 487.369 40.06 487.036 39.94C486.702 39.82 486.402 39.7533 486.136 39.74C485.909 39.7267 485.689 39.76 485.476 39.84C485.276 39.92 485.109 40.0333 484.976 40.18C484.842 40.3267 484.776 40.5 484.776 40.7C484.776 40.98 484.869 41.2067 485.056 41.38C485.242 41.5533 485.482 41.6933 485.776 41.8C486.082 41.8933 486.382 41.9933 486.676 42.1C487.089 42.22 487.456 42.38 487.776 42.58C488.096 42.78 488.349 43.0267 488.536 43.32C488.736 43.6133 488.836 43.98 488.836 44.42C488.836 44.9133 488.716 45.3733 488.476 45.8C488.249 46.2133 487.896 46.5467 487.416 46.8C486.949 47.04 486.349 47.16 485.616 47.16ZM492.24 35.08H494.1V38.76H496.38V40.22H494.1V47H492.24V40.22H490.72V38.76H492.24V35.08ZM498.628 38.72H500.488V47H498.628V38.72ZM498.488 35.72C498.488 35.4267 498.601 35.18 498.828 34.98C499.068 34.78 499.328 34.68 499.608 34.68C499.888 34.68 500.134 34.78 500.348 34.98C500.574 35.18 500.688 35.4267 500.688 35.72C500.688 36.0267 500.574 36.28 500.348 36.48C500.134 36.6667 499.888 36.76 499.608 36.76C499.328 36.76 499.068 36.66 498.828 36.46C498.601 36.26 498.488 36.0133 498.488 35.72ZM502.986 42.78C502.986 41.9533 503.179 41.2067 503.566 40.54C503.966 39.8733 504.513 39.3467 505.206 38.96C505.899 38.5733 506.686 38.38 507.566 38.38C508.473 38.38 509.266 38.5733 509.946 38.96C510.626 39.3467 511.153 39.8733 511.526 40.54C511.899 41.2067 512.086 41.9533 512.086 42.78C512.086 43.6067 511.899 44.36 511.526 45.04C511.153 45.7067 510.619 46.2333 509.926 46.62C509.246 47.0067 508.453 47.2 507.546 47.2C506.666 47.2 505.879 47.02 505.186 46.66C504.506 46.2867 503.966 45.7733 503.566 45.12C503.179 44.4533 502.986 43.6733 502.986 42.78ZM504.846 42.8C504.846 43.3333 504.966 43.82 505.206 44.26C505.446 44.6867 505.766 45.0267 506.166 45.28C506.579 45.5333 507.033 45.66 507.526 45.66C508.046 45.66 508.506 45.5333 508.906 45.28C509.319 45.0267 509.639 44.6867 509.866 44.26C510.093 43.82 510.206 43.3333 510.206 42.8C510.206 42.2667 510.093 41.7867 509.866 41.36C509.639 40.92 509.319 40.5733 508.906 40.32C508.506 40.0533 508.046 39.92 507.526 39.92C507.019 39.92 506.559 40.0533 506.146 40.32C505.746 40.5867 505.426 40.94 505.186 41.38C504.959 41.8067 504.846 42.28 504.846 42.8ZM516.264 38.72L516.424 40.74L516.344 40.42C516.611 39.8067 517.044 39.32 517.644 38.96C518.244 38.5867 518.938 38.4 519.724 38.4C520.511 38.4 521.151 38.6333 521.644 39.1C522.151 39.5533 522.411 40.1467 522.424 40.88V47H520.544V41.54C520.531 41.0867 520.398 40.72 520.144 40.44C519.904 40.1467 519.524 40 519.004 40C518.524 40 518.091 40.1333 517.704 40.4C517.318 40.6667 517.011 41.0333 516.784 41.5C516.571 41.9667 516.464 42.5067 516.464 43.12V47H514.604V38.72H516.264ZM527.979 47.16C527.392 47.16 526.819 47.06 526.259 46.86C525.712 46.6467 525.259 46.3333 524.899 45.92L525.679 44.84C526.026 45.1733 526.379 45.4267 526.739 45.6C527.112 45.76 527.479 45.84 527.839 45.84C528.106 45.84 528.352 45.8067 528.579 45.74C528.806 45.6733 528.986 45.5667 529.119 45.42C529.266 45.26 529.339 45.0467 529.339 44.78C529.339 44.4867 529.239 44.2533 529.039 44.08C528.852 43.9067 528.606 43.7667 528.299 43.66C528.006 43.5533 527.692 43.4533 527.359 43.36C526.679 43.1333 526.159 42.82 525.799 42.42C525.439 42.02 525.259 41.5333 525.259 40.96C525.259 40.52 525.366 40.1133 525.579 39.74C525.806 39.3533 526.132 39.04 526.559 38.8C526.999 38.56 527.539 38.44 528.179 38.44C528.752 38.44 529.266 38.5133 529.719 38.66C530.172 38.7933 530.599 39.02 530.999 39.34L530.259 40.5C530.019 40.2467 529.732 40.06 529.399 39.94C529.066 39.82 528.766 39.7533 528.499 39.74C528.272 39.7267 528.052 39.76 527.839 39.84C527.639 39.92 527.472 40.0333 527.339 40.18C527.206 40.3267 527.139 40.5 527.139 40.7C527.139 40.98 527.232 41.2067 527.419 41.38C527.606 41.5533 527.846 41.6933 528.139 41.8C528.446 41.8933 528.746 41.9933 529.039 42.1C529.452 42.22 529.819 42.38 530.139 42.58C530.459 42.78 530.712 43.0267 530.899 43.32C531.099 43.6133 531.199 43.98 531.199 44.42C531.199 44.9133 531.079 45.3733 530.839 45.8C530.612 46.2133 530.259 46.5467 529.779 46.8C529.312 47.04 528.712 47.16 527.979 47.16Z" fill="#030303"/>
<path d="M577 104C577 104 550.12 97.2117 549.016 84.0001C549.016 84.0001 578.5 84.0001 577 84.0001C575.5 84.0001 577 104 577 104Z" fill="#FFEFCC"/>
<g clip-path="url(#clip0_961_7350)">
<path d="M608.5 91.4469C616.314 91.4469 630.899 82.4317 635.682 58.1635C640.465 33.8954 629.147 18.3835 608.5 18.3835C587.853 18.3835 576.536 33.8954 581.318 58.1635C586.101 82.4317 600.71 91.4469 608.5 91.4469Z" fill="#FFE1C3"/>
<path d="M581.318 58.1635C581.034 56.7277 580.821 55.3389 580.655 53.9737C579.424 52.2554 578.027 51.1255 576.535 51.5257C573.647 52.3025 572.889 54.6563 575.896 61.7885C578.927 68.9206 581.318 71.5805 583.07 70.8037C583.639 70.5448 584.065 69.7444 584.349 68.7558C583.118 65.6017 582.076 62.0944 581.295 58.1635H581.318Z" fill="#FFE1C3"/>
<path d="M635.634 58.1635C635.919 56.7277 636.132 55.3389 636.297 53.9737C637.529 52.2554 638.926 51.1255 640.417 51.5257C643.306 52.3025 644.064 54.6563 641.057 61.7885C638.026 68.9206 635.634 71.5805 633.882 70.8037C633.314 70.5448 632.888 69.7444 632.604 68.7558C633.835 65.6017 634.877 62.0944 635.658 58.1635H635.634Z" fill="#FFE1C3"/>
<g style="mix-blend-mode:screen" opacity="0.2">
<path d="M635.682 58.1635C640.465 33.8954 629.147 18.3835 608.5 18.3835V91.4469C616.314 91.4469 630.899 82.4317 635.682 58.1635Z" fill="#FFE1C3"/>
</g>
<path d="M608.5 11.4397C614.23 11.4397 619.77 12.5225 624.695 14.5938C625.122 13.5817 625.358 12.5225 625.358 11.4397C625.358 5.10785 617.805 0 608.5 0C599.195 0 591.642 5.13138 591.642 11.4397C591.642 12.546 591.878 13.6052 592.305 14.5938C597.229 12.4989 602.77 11.4397 608.5 11.4397Z" fill="#CC5525"/>
<path d="M624.222 106.206C620.694 113.102 608.5 116.963 608.5 116.963C608.5 116.963 596.306 113.102 592.778 106.206C597.064 101.051 596.922 94.3892 596.117 89.9169C595.572 86.904 594.743 84.8561 594.743 84.8561H594.791C599.716 89.4461 604.854 91.4705 608.5 91.4705C612.146 91.4705 617.284 89.4461 622.209 84.8561H622.257C622.257 84.8561 621.428 86.9275 620.883 89.9169C620.078 94.4128 619.936 101.051 624.222 106.206Z" fill="#FFDCB9"/>
<path d="M582.052 109.689L602.794 153H615.887L633.338 109.36L629.62 108.583L608.5 113.597L587.38 108.583L582.052 109.689Z" fill="#E6E6E6"/>
<path d="M596.401 97.3551L593.394 97.9435L586.859 107.947L602.32 126.966L608.5 113.597L595.833 100.25L596.401 97.3551Z" fill="#F0F0F0"/>
<path d="M605.872 153H553C553 153 560.08 118.422 563.181 115.221C563.229 115.15 563.252 115.15 563.3 115.103C566.33 112.726 587.356 108.606 587.356 108.606L605.848 153H605.872Z" fill="#007896"/>
<path d="M620.576 97.3551L623.606 97.9435L630.141 107.947L614.656 126.966L608.5 113.597L621.167 100.25L620.576 97.3551Z" fill="#F0F0F0"/>
<path d="M629.62 108.583C629.62 108.583 650.646 112.702 653.677 115.08C656.707 117.457 664 153 664 153H611.152L629.644 108.583H629.62Z" fill="#007896"/>
<g style="mix-blend-mode:multiply" opacity="0.2">
<path d="M622.257 84.8326C622.257 84.8326 621.428 86.904 620.883 89.8934C616.385 93.6595 611.791 95.3072 608.5 95.3072C605.209 95.3072 600.615 93.6595 596.117 89.8934C595.572 86.8805 594.743 84.8326 594.743 84.8326H594.791C599.716 89.4226 604.854 91.4469 608.5 91.4469C612.146 91.4469 617.284 89.4226 622.209 84.8326H622.257Z" fill="#FFC8AF"/>
</g>
<path d="M608.216 10.2392C578.24 10.2392 575.92 39.4505 577.293 49.9957C577.98 55.2683 582.147 60.3291 582.147 60.3291C582.147 60.3291 583.236 46.0648 592.541 42.0161C601.823 37.944 615.414 40.1331 621.996 30.2705C629.715 41.9455 633.148 46.8651 634.664 60.3291C643.235 51.408 650.03 10.5452 608.216 10.2392Z" fill="#CC5525"/>
<path d="M614.49 83.7499C614.49 85.5623 612.241 87.0452 609.447 87.0452C606.653 87.0452 604.404 85.5859 604.404 83.7499C604.404 81.9139 606.677 80.4545 609.447 80.4545C612.217 80.4545 614.49 81.9139 614.49 83.7499Z" fill="#505050"/>
<path d="M637.694 63.7421C636.96 66.4491 635.256 68.3321 633.882 67.9791C632.509 67.6024 631.988 65.1074 632.746 62.424C633.48 59.7171 635.184 57.834 636.558 58.1871C637.931 58.5637 638.452 61.0352 637.718 63.7421H637.694Z" fill="#505050"/>
<path d="M610.205 84.6914V82.6906C627.111 82.6906 630.141 79.1128 634.853 65.0368L636.771 65.6723C631.751 80.6428 627.892 84.6914 610.205 84.6914Z" fill="#505050"/>
<path d="M649.273 132.474H608.879V153H649.273V132.474Z" fill="#505050"/>
<g style="mix-blend-mode:screen" opacity="0.1">
<path d="M649.273 132.474H629.076V153H649.273V132.474Z" fill="#505050"/>
</g>
<path d="M636.061 130.85H622.564V134.099H636.061V130.85Z" fill="#E6E6E6"/>
<path d="M563.181 115.221V153H553C553 153 560.08 118.422 563.181 115.221Z" fill="#0082A0"/>
<path d="M653.819 115.221V153H664C664 153 656.92 118.422 653.819 115.221Z" fill="#0082A0"/>
</g>
<defs>
<clipPath id="clip0_961_7350">
<rect width="111" height="153" fill="white" transform="translate(553)"/>
</clipPath>
</defs>
</svg>
