<svg width="219" height="167" viewBox="0 0 219 167" fill="none" xmlns="http://www.w3.org/2000/svg">
<g clip-path="url(#clip0_686_8506)">
<path d="M33.8295 80.4112C27.4616 80.4112 21.5912 75.1762 21.2678 74.9033C20.4221 74.1341 20.3723 72.844 21.1186 72.0004C21.8897 71.1569 23.1832 71.0824 24.0289 71.8516C24.1035 71.926 31.3172 78.3023 36.6652 75.6476C37.909 75.0273 39.6502 72.844 39.7 70.3381C39.7497 67.336 37.4364 64.4828 33.0087 62.101C20.0241 55.0796 3.75607 40.5654 0.547238 22.6522C-1.9651 8.55978 4.67643 3.27512 7.66139 1.63763C12.7856 -1.14116 19.3027 -0.34722 23.5563 3.59766C31.7649 11.1897 26.3174 23.1732 26.0686 23.6942C25.596 24.7115 24.3772 25.1581 23.3324 24.6867C22.3126 24.2153 21.8648 22.9995 22.3374 21.9575C22.3374 21.9575 26.7403 12.1821 20.7455 6.59974C17.8351 3.89539 13.1587 3.32475 9.62649 5.25997C4.9998 7.79065 3.15908 13.8692 4.60181 21.9327C7.53702 38.3821 22.7852 51.9039 34.9489 58.4787C42.3615 62.4732 43.854 67.1624 43.7794 70.4126C43.7048 74.5807 41.0681 78.0542 38.4811 79.3444C36.9389 80.1135 35.3469 80.4112 33.8047 80.4112H33.8295Z" fill="#F9B256"/>
<path d="M95.1705 80.4111C101.538 80.4111 107.409 75.176 107.732 74.9031C108.578 74.134 108.628 72.8438 107.881 72.0003C107.11 71.1567 105.817 71.0823 104.971 71.8514C104.896 71.9259 97.6828 78.3022 92.3347 75.6474C91.091 75.0272 89.3498 72.8438 89.3 70.338C89.2503 67.3359 91.5636 64.4827 95.9913 62.1009C108.951 55.1043 125.244 40.5653 128.428 22.6521C130.94 8.53483 124.299 3.25018 121.314 1.63749C116.19 -1.1413 109.672 -0.347358 105.419 3.57271C97.2102 11.1648 102.658 23.1483 102.906 23.6693C103.379 24.6865 104.598 25.1331 105.643 24.6617C106.663 24.1903 107.11 22.9746 106.638 21.9325C106.638 21.9325 102.235 12.1572 108.23 6.57479C111.14 3.87044 115.816 3.2998 119.349 5.23502C123.975 7.7657 125.816 13.8443 124.373 21.9077C121.438 38.3571 106.19 51.8789 94.0262 58.4537C86.6136 62.4482 85.1211 67.1374 85.1957 70.3876C85.2703 74.5558 87.9071 78.0293 90.494 79.3194C92.0363 80.0885 93.6282 80.3863 95.1705 80.3863V80.4111Z" fill="#F0851D"/>
<path d="M32.7102 131.918C31.9888 132.687 31.6903 136.036 31.6903 136.036L64.6244 136.21V0.992432H27.3124C27.3124 1.24054 27.3124 1.51345 27.3124 1.76156C27.3124 34.1642 36.4165 62.1009 49.5503 75.0024C50.9433 76.367 57.5102 81.2547 57.6843 88.9707C57.759 92.4194 52.4607 91.7991 52.4607 94.8757C52.4607 98.4732 57.361 98.2251 57.4356 102.741C57.4853 105.594 57.5102 118.049 57.4356 123.706C57.3858 128.072 36.8394 127.65 32.7351 131.918H32.7102Z" fill="#F9B256"/>
<path d="M96.5137 132.017C97.2351 132.786 97.5335 136.136 97.5335 136.136L64.5746 136.309V1.09155H101.887C101.887 1.33966 101.887 1.61257 101.887 1.86068C101.887 34.2633 92.7825 62.2 79.6487 75.1015C78.2557 76.4661 71.6888 81.3538 71.5146 89.0699C71.44 92.5185 76.7383 91.8983 76.7383 94.9748C76.7383 98.5723 71.838 98.3242 71.7634 102.84C71.7136 105.693 71.6888 118.148 71.7634 123.805C71.8131 128.171 92.3596 127.75 96.4639 132.017H96.5137Z" fill="#F0851D"/>
<path d="M64.5 44.1132C71.7948 44.1132 77.7085 38.2148 77.7085 30.9388C77.7085 23.6628 71.7948 17.7644 64.5 17.7644C57.2052 17.7644 51.2916 23.6628 51.2916 30.9388C51.2916 38.2148 57.2052 44.1132 64.5 44.1132Z" fill="#FBD099"/>
<path d="M59.9728 35.3798H63.4801V25.0834H60.5947V23.3219C62.1618 23.0242 63.2314 22.6272 64.2264 22.0317H66.3407V35.3798H69.4252V37.6872H59.9728V35.3798Z" fill="white"/>
<path d="M64.6741 158.713H29.9242V141.172H64.6741V135.863H19.8997C18.7555 135.863 17.8351 136.781 17.8351 137.922V161.542H64.6741V158.713Z" fill="#893E29"/>
<path d="M17.8351 161.542H10.7956V167H64.6741V164.271V161.542H17.8351Z" fill="#893E29"/>
<path d="M64.6741 141.172H29.9242V158.713H64.6741V141.172Z" fill="#FBD099"/>
<path d="M99.0758 141.172V158.713H64.6741V161.542H111.19V137.922C111.19 136.781 110.269 135.863 109.125 135.863H64.6741V141.172H99.0758Z" fill="#582A1A"/>
<path d="M111.19 161.542H64.6741V164.271V167H118.204V161.542H111.19Z" fill="#582A1A"/>
<path d="M99.0758 141.172H64.6741V158.713H99.0758V141.172Z" fill="#F9B256"/>
</g>
<g clip-path="url(#clip1_686_8506)">
<path d="M219 106.514C219 110.329 215.899 113.424 212.075 113.424H9.92462C6.10137 113.424 3 110.329 3 106.514C3 102.698 6.10137 99.603 9.92462 99.603H212.049C215.872 99.603 218.973 102.698 218.973 106.514H219Z" fill="#7A2400"/>
<path d="M22.8648 65.5842V144.961C22.8648 152.165 27.5971 158.008 33.4523 158.008L34.094 157.902L33.9335 55.1785L33.4523 54.9917C27.5971 54.9917 22.8648 59.7143 22.8648 65.5575V65.5842Z" fill="#4F4F4F"/>
<path d="M33.4523 55.0183V158.008C39.3075 158.008 44.0398 152.165 44.0398 144.961V65.5841C44.0398 59.7409 39.3075 55.0183 33.4523 55.0183Z" fill="#666666"/>
<path d="M177.96 65.5841V144.961C177.96 152.165 182.693 158.008 188.548 158.008L189.082 157.875L188.869 55.2051L188.548 55.0183C182.693 55.0183 177.96 59.7409 177.96 65.5841Z" fill="#4F4F4F"/>
<path d="M188.548 55.0183V158.008C194.403 158.008 199.135 152.165 199.135 144.961V65.5841C199.135 59.7409 194.403 55.0183 188.548 55.0183Z" fill="#666666"/>
<path d="M55.1886 46.1067L54.7609 46.0266C48.8255 46.1067 44.0397 50.9093 44.0397 56.8592V153.606C44.0397 160.943 48.8255 166.893 54.7609 166.973L55.1886 166.867V46.1067Z" fill="#4F4F4F"/>
<path d="M54.8945 46C54.8945 46 54.8143 46 54.7609 46V167C54.7609 167 54.8411 167 54.8945 167C60.8834 167 65.7493 160.997 65.7493 153.606V56.8326C65.7493 50.856 60.8834 46 54.8945 46Z" fill="#666666"/>
<path d="M156.251 56.8326V153.606C156.251 160.943 161.036 166.893 166.972 166.973L167.346 166.92L167.453 46.1067L166.972 46.0266C161.036 46.1067 156.251 50.9093 156.251 56.8592V56.8326Z" fill="#4F4F4F"/>
<path d="M167.105 46C167.105 46 167.025 46 166.972 46V167C166.972 167 167.052 167 167.105 167C173.094 167 177.96 160.997 177.96 153.606V56.8326C177.96 50.856 173.094 46 167.105 46Z" fill="#666666"/>
</g>
<defs>
<clipPath id="clip0_686_8506">
<rect width="129" height="167" fill="white"/>
</clipPath>
<clipPath id="clip1_686_8506">
<rect width="216" height="121" fill="white" transform="translate(3 46)"/>
</clipPath>
</defs>
</svg>
