<svg width="427" height="390" viewBox="0 0 427 390" fill="none" xmlns="http://www.w3.org/2000/svg">
<g clip-path="url(#clip0_686_8472)">
<path d="M239.235 390V313.457H183.582C183.582 313.457 174.957 342.556 172.833 354.265C170.146 369.097 168.759 381.457 168.022 390H239.235Z" fill="#4F4F4F"/>
<path d="M310.362 390C309.625 381.457 308.238 369.097 305.551 354.265C303.427 342.556 294.802 313.457 294.802 313.457H239.149V390H310.362Z" fill="#333333"/>
<path d="M424.356 136.476C423.576 129.321 422.319 121.298 419.458 114.923C416.337 107.941 410.616 102.216 406.325 95.9279C404.635 93.456 395.489 79.7086 392.889 76.0658C389.898 71.8158 386.777 67.6526 383.483 63.6194C378.022 56.9409 369.743 37.2089 364.065 35.1706C359.947 33.6962 355.786 33.089 351.409 33.436C341.05 34.2166 331.037 30.7038 323.799 40.0278C317.211 48.5277 318.944 63.9664 326.443 71.4255C329.26 74.2444 333.811 75.6321 337.365 75.7622C339.836 75.849 341.44 75.6755 342.61 73.5505C343.087 72.6832 342.61 71.6423 343.043 70.775C344.864 70.6449 352.146 68.8235 355.656 65.9179C361.724 71.8592 363.545 81.7902 365.409 89.8131C367.533 98.8769 369.223 108.201 372.43 116.961C374.337 122.252 377.155 127.629 380.752 132.356C375.594 130.925 370.046 130.491 364.975 130.968C355.526 131.879 347.551 136.736 338.882 140.162C330.864 136.389 322.412 132.096 314.263 131.619C302.95 130.968 293.848 135.262 283.056 136.519C281.495 136.693 279.978 136.519 278.591 136.216C261.124 128.843 264.548 105.078 264.548 105.078L238.889 105.208L214.096 105.078C214.096 105.078 214.703 124.03 203.087 133.917C201.916 134.915 197.495 137.04 193.074 136.519C182.282 135.262 173.18 130.968 161.867 131.619C153.675 132.096 145.266 136.389 137.248 140.162C128.579 136.78 120.604 131.879 111.155 130.968C106.084 130.491 100.536 130.882 95.3777 132.356C98.9752 127.629 101.793 122.252 103.7 116.961C106.864 108.157 108.554 98.8769 110.721 89.8131C112.585 81.8336 114.406 71.8592 120.474 65.9179C123.985 68.8235 131.223 70.6883 133.087 70.775C133.563 71.6423 133.087 72.7265 133.52 73.5505C134.69 75.6755 136.294 75.8923 138.765 75.7622C142.319 75.6321 146.87 74.201 149.687 71.4255C157.186 63.9664 158.92 48.5277 152.331 40.0278C145.093 30.7038 135.081 34.2166 124.721 33.436C120.344 33.1324 116.139 33.6962 112.065 35.1706C106.43 37.2089 98.1084 56.9409 92.6471 63.6194C89.3529 67.6526 86.2322 71.8158 83.2415 76.0658C80.6842 79.7086 71.4954 93.456 69.805 95.9279C65.4706 102.216 59.7926 107.941 56.6718 114.923C53.8111 121.298 52.5542 129.364 51.774 136.476C50.6471 146.971 47.6564 155.341 50.0403 159.07C54.548 166.052 62.4799 169.695 69.3715 174.032C70.3684 174.639 92.3437 190.728 102.573 194.805C126.238 204.302 144.659 189.08 148.43 204.302C154.065 226.853 164.901 238.562 177.601 256.343C183.539 264.626 183.842 305.391 183.755 313.414H295.019C294.932 308.296 294.585 279.848 296.319 262.241C296.969 259.682 297.749 257.6 298.659 256.343C311.359 238.562 322.195 226.896 327.83 204.302C331.644 189.08 350.022 204.302 373.687 194.805C383.916 190.685 405.892 174.639 406.889 174.032C413.78 169.695 421.712 166.052 426.22 159.07C428.647 155.341 425.656 146.971 424.486 136.476H424.356Z" fill="#F4B073"/>
<path d="M319.248 192.29C316.647 202.047 310.709 221.779 284.226 225.942C253.929 230.713 243.916 220.261 243.916 220.261C243.916 220.261 243.7 230.192 259.78 233.922C278.505 238.259 299.656 233.185 308.932 222.993C315.867 215.361 322.065 200.139 319.204 192.29H319.248Z" fill="#E59A5C"/>
<path d="M156.449 192.29C159.05 202.047 164.988 221.779 191.471 225.942C221.768 230.713 231.78 220.261 231.78 220.261C231.78 220.261 231.997 230.192 215.916 233.922C197.192 238.259 176.04 233.185 166.765 222.993C159.83 215.361 153.632 200.139 156.492 192.29H156.449Z" fill="#E59A5C"/>
<path d="M283.359 63.9665C281.149 58.4155 276.207 61.8849 276.207 61.8849C276.771 58.2854 282.232 22.5943 265.155 12.9235C256.183 7.84953 243.613 7.67606 239.235 7.71943V7.45923C237.978 7.5026 223.805 6.93882 213.272 12.9235C196.195 22.5943 201.656 58.2854 202.22 61.8849C202.22 61.8849 197.322 58.4155 195.068 63.9665C193.161 68.7803 195.068 78.1042 198.406 80.8363C199.966 82.094 203.52 82.4409 204.604 83.048C206.294 91.2878 207.204 99.9612 212.102 106.813C220.294 118.262 235.941 119.043 239.669 119.043C241.142 119.216 254.969 120.387 266.238 106.813C271.613 100.308 272.09 91.2878 273.737 83.048C274.864 82.4409 278.418 82.094 279.935 80.8363C283.272 78.1042 285.18 68.7803 283.272 63.9665H283.359Z" fill="#F9C38A"/>
<path d="M202.176 67.5661L203.26 76.2829C203.26 76.2829 200.226 74.6783 199.663 70.6018C199.359 68.1732 200.183 66.612 202.176 67.5661Z" fill="#E59A5C"/>
<path d="M276.511 67.5661L275.427 76.2829C275.427 76.2829 278.461 74.6783 279.025 70.6018C279.328 68.1732 278.505 66.612 276.511 67.5661Z" fill="#E59A5C"/>
<path d="M280.759 23.3315C278.895 7.19893 266.152 1.69132 242.009 0.130101C241.099 0.0867341 240.189 0.0433671 239.279 0C238.368 0 237.458 0.0867341 236.548 0.130101C212.406 1.64795 199.663 7.19893 197.799 23.3315C196.802 32.1784 197.235 45.2319 199.099 60.8006L202.35 61.8848C202.35 61.8848 204.257 35.9513 210.195 32.0049C216.133 28.0585 220.251 32.4386 238.065 32.4386C238.498 32.4386 238.932 32.4386 239.365 32.4386C239.799 32.4386 240.189 32.4386 240.666 32.4386C258.48 32.4386 262.598 28.0585 268.536 32.0049C274.474 35.9513 276.381 61.8848 276.381 61.8848L279.632 60.8006C281.495 45.2319 281.929 32.135 280.932 23.3315H280.759Z" fill="#582A1A"/>
<path d="M241.663 300.62C241.663 302.745 240.579 304.48 239.235 304.48C237.892 304.48 236.808 302.745 236.808 300.62C236.808 298.495 237.892 296.761 239.235 296.761C240.579 296.761 241.663 298.495 241.663 300.62Z" fill="#E2995D"/>
</g>
<g clip-path="url(#clip1_686_8472)">
<path d="M52.4489 214.709C42.5762 214.709 33.4747 206.59 32.9734 206.167C31.6622 204.974 31.585 202.973 32.742 201.665C33.9375 200.357 35.9429 200.241 37.2541 201.434C37.3698 201.55 48.5538 211.439 56.8454 207.322C58.7736 206.36 61.4732 202.973 61.5503 199.087C61.6275 194.431 58.0409 190.006 51.1762 186.312C31.0451 175.423 5.82337 152.913 0.84844 125.131C-3.04666 103.275 7.25029 95.0792 11.8781 92.5396C19.8226 88.23 29.9267 89.4613 36.5214 95.5795C49.248 107.354 40.8022 125.939 40.4165 126.747C39.6838 128.325 37.7941 129.017 36.1743 128.286C34.5931 127.555 33.899 125.67 34.6317 124.054C34.6317 124.054 41.4578 108.893 32.1635 100.235C27.6514 96.0412 20.4011 95.1562 14.9248 98.1575C7.75164 102.082 4.8978 111.51 7.1346 124.015C11.6853 149.527 35.3259 170.497 54.1843 180.694C65.6768 186.889 67.9907 194.162 67.8751 199.203C67.7594 205.667 63.6714 211.054 59.6606 213.055C57.2696 214.248 54.8014 214.709 52.4103 214.709H52.4489Z" fill="#F9B256"/>
<path d="M147.551 214.709C157.424 214.709 166.525 206.59 167.027 206.167C168.338 204.974 168.415 202.973 167.258 201.665C166.062 200.357 164.057 200.241 162.746 201.434C162.63 201.55 151.446 211.439 143.155 207.322C141.226 206.36 138.527 202.973 138.45 199.087C138.373 194.431 141.959 190.006 148.824 186.312C168.916 175.461 194.177 152.913 199.113 125.131C203.008 103.237 192.711 95.0408 188.083 92.5396C180.139 88.23 170.035 89.4613 163.44 95.541C150.713 107.315 159.159 125.901 159.545 126.709C160.278 128.286 162.167 128.979 163.787 128.248C165.368 127.517 166.062 125.631 165.33 124.015C165.33 124.015 158.504 108.855 167.798 100.197C172.31 96.0027 179.56 95.1177 185.037 98.119C192.21 102.044 195.064 111.471 192.827 123.977C188.276 149.488 164.636 170.459 145.777 180.656C134.285 186.851 131.971 194.123 132.086 199.164C132.202 205.628 136.29 211.016 140.301 213.016C142.692 214.209 145.16 214.671 147.551 214.671V214.709Z" fill="#F0851D"/>
<path d="M50.7135 294.591C49.5951 295.784 49.1323 300.979 49.1323 300.979L100.193 301.248V91.5393H42.3448C42.3448 91.9241 42.3448 92.3474 42.3448 92.7321C42.3448 142.985 56.4597 186.312 76.8222 206.321C78.9819 208.438 89.1631 216.018 89.4331 227.985C89.5488 233.333 81.3344 232.371 81.3344 237.143C81.3344 242.722 88.9317 242.337 89.0474 249.34C89.1246 253.765 89.1631 273.082 89.0474 281.855C88.9703 288.627 57.1153 287.973 50.752 294.591H50.7135Z" fill="#F9B256"/>
<path d="M149.634 294.745C150.752 295.938 151.215 301.133 151.215 301.133L100.116 301.402V91.6931H157.964C157.964 92.0779 157.964 92.5012 157.964 92.886C157.964 143.139 143.849 186.466 123.486 206.475C121.327 208.591 111.145 216.172 110.875 228.139C110.76 233.487 118.974 232.525 118.974 237.296C118.974 242.876 111.377 242.491 111.261 249.494C111.184 253.919 111.145 273.236 111.261 282.009C111.338 288.781 143.193 288.127 149.556 294.745H149.634Z" fill="#F0851D"/>
<path d="M100 158.415C111.31 158.415 120.478 149.267 120.478 137.983C120.478 126.699 111.31 117.551 100 117.551C88.6902 117.551 79.5218 126.699 79.5218 137.983C79.5218 149.267 88.6902 158.415 100 158.415Z" fill="#FBD099"/>
<path d="M92.9811 144.871H98.4188V128.902H93.9452V126.17C96.3749 125.708 98.0332 125.093 99.5758 124.169H102.854V144.871H107.636V148.449H92.9811V144.871Z" fill="white"/>
<path d="M100.27 336.148H46.3941V308.944H100.27V300.709H30.8523C29.0783 300.709 27.6514 302.133 27.6514 303.903V340.535H100.27V336.148Z" fill="#893E29"/>
<path d="M27.6514 340.535H16.7374V349H100.27V344.767V340.535H27.6514Z" fill="#893E29"/>
<path d="M100.27 308.944H46.3941V336.148H100.27V308.944Z" fill="#FBD099"/>
<path d="M153.606 308.944V336.148H100.27V340.535H172.387V303.903C172.387 302.133 170.96 300.709 169.186 300.709H100.27V308.944H153.606Z" fill="#582A1A"/>
<path d="M172.387 340.535H100.27V344.767V349H183.263V340.535H172.387Z" fill="#582A1A"/>
<path d="M153.606 308.944H100.27V336.148H153.606V308.944Z" fill="#F9B256"/>
</g>
<defs>
<clipPath id="clip0_686_8472">
<rect width="378" height="390" fill="white" transform="translate(49)"/>
</clipPath>
<clipPath id="clip1_686_8472">
<rect width="200" height="259" fill="white" transform="translate(0 90)"/>
</clipPath>
</defs>
</svg>
