<svg width="48" height="48" viewBox="0 0 48 48" fill="none" xmlns="http://www.w3.org/2000/svg">
<path d="M29.4351 37.53H18.445C13.885 37.53 10.175 33.82 10.175 29.26V18.27C10.175 13.71 13.885 10 18.445 10H29.4351C33.9951 10 37.705 13.71 37.705 18.27V29.26C37.705 33.82 33.9951 37.53 29.4351 37.53ZM18.445 12.59C15.315 12.59 12.765 15.14 12.765 18.27V29.26C12.765 32.39 15.315 34.94 18.445 34.94H29.4351C32.5651 34.94 35.1151 32.39 35.1151 29.26V18.27C35.1151 15.14 32.5651 12.59 29.4351 12.59H18.445Z" fill="#6D6D6D"/>
<path d="M30.955 15.12C30.065 15.12 29.345 15.84 29.345 16.73C29.345 17.62 30.065 18.34 30.955 18.34C31.845 18.34 32.565 17.62 32.565 16.73C32.565 15.84 31.845 15.12 30.955 15.12Z" fill="#6D6D6D"/>
<path d="M23.7851 17.1899C20.0451 17.1899 17.0051 20.2299 17.0051 23.9699C17.0051 27.7099 20.0451 30.7499 23.7851 30.7499C27.5251 30.7499 30.5651 27.7099 30.5651 23.9699C30.5651 20.2299 27.5251 17.1899 23.7851 17.1899ZM23.7851 28.3099C21.3951 28.3099 19.4451 26.3599 19.4451 23.9699C19.4451 21.5799 21.3951 19.6299 23.7851 19.6299C26.1751 19.6299 28.1251 21.5799 28.1251 23.9699C28.1251 26.3599 26.1751 28.3099 23.7851 28.3099Z" fill="#6D6D6D"/>
</svg>
