<svg width="354" height="147" viewBox="0 0 354 147" fill="none" xmlns="http://www.w3.org/2000/svg">
<circle cx="177" cy="73.5" r="70" fill="#44DD77"/>
<mask id="mask0_961_7404" style="mask-type:alpha" maskUnits="userSpaceOnUse" x="137" y="33" width="80" height="80">
<rect x="137" y="33" width="80" height="80" fill="#D9D9D9"/>
</mask>
<g mask="url(#mask0_961_7404)">
<path d="M168.833 91.5833C168.389 91.5833 167.972 91.5133 167.583 91.3733C167.194 91.2356 166.833 91 166.5 90.6667L152.167 76.3333C151.556 75.7222 151.263 74.93 151.29 73.9567C151.319 72.9856 151.639 72.1945 152.25 71.5833C152.861 70.9722 153.639 70.6667 154.583 70.6667C155.528 70.6667 156.306 70.9722 156.917 71.5833L168.833 83.5L197.083 55.25C197.694 54.6389 198.487 54.3333 199.46 54.3333C200.431 54.3333 201.222 54.6389 201.833 55.25C202.444 55.8611 202.75 56.6522 202.75 57.6233C202.75 58.5967 202.444 59.3889 201.833 60L171.167 90.6667C170.833 91 170.472 91.2356 170.083 91.3733C169.694 91.5133 169.278 91.5833 168.833 91.5833Z" fill="#F6F6F6"/>
</g>
</svg>
