<svg width="48" height="48" viewBox="0 0 48 48" fill="none" xmlns="http://www.w3.org/2000/svg">
<path d="M10.8903 22.1628C10.8903 22.1628 24.1803 16.7128 28.7803 14.7928C30.5503 14.0228 36.5403 11.5628 36.5403 11.5628C36.5403 11.5628 39.3003 10.4828 39.0703 13.1028C38.9903 14.1828 38.3803 17.9428 37.7603 22.0128C36.8403 27.7728 35.8403 34.0728 35.8403 34.0728C35.8403 34.0728 35.6903 35.8428 34.3803 36.1428C33.0703 36.4528 30.9203 35.0728 30.5403 34.7628C30.2303 34.5328 24.7803 31.0728 22.7803 29.3828C22.2403 28.9228 21.6303 28.0028 22.8603 26.9228C25.6203 24.3928 28.9303 21.2428 30.9203 19.2428C31.8403 18.3228 32.7603 16.1728 28.9203 18.7828C23.4703 22.5428 18.0903 26.0828 18.0903 26.0828C18.0903 26.0828 16.8603 26.8528 14.5603 26.1628C12.2603 25.4728 9.5703 24.5528 9.5703 24.5528C9.5703 24.5528 7.73029 23.4028 10.8803 22.1728L10.8903 22.1628Z" fill="#6D6D6D"/>
</svg>
