<svg width="48" height="48" viewBox="0 0 48 48" fill="none" xmlns="http://www.w3.org/2000/svg">
<path d="M37.39 20.785C37.13 20.805 36.88 20.825 36.62 20.825C33.8 20.825 31.17 19.405 29.63 17.045V29.905C29.63 35.155 25.37 39.415 20.12 39.415C14.87 39.415 10.61 35.155 10.61 29.905C10.61 24.655 14.87 20.395 20.12 20.395C20.32 20.395 20.51 20.415 20.71 20.425V25.105C20.52 25.085 20.32 25.045 20.12 25.045C17.44 25.045 15.27 27.215 15.27 29.895C15.27 32.575 17.44 34.745 20.12 34.745C22.8 34.745 25.17 32.635 25.17 29.955L25.22 8.11499H29.7C30.12 12.135 33.36 15.275 37.39 15.565V20.775" fill="#6D6D6D"/>
</svg>
