<svg width="49" height="48" viewBox="0 0 49 48" fill="none" xmlns="http://www.w3.org/2000/svg">
<path d="M37.9246 15.2733C37.0646 15.6633 36.1046 15.9033 35.1746 16.0533C35.6146 15.9833 36.2646 15.1833 36.5246 14.8533C36.9246 14.3633 37.2546 13.8033 37.4346 13.1933C37.4546 13.1433 37.4746 13.0833 37.4346 13.0533C37.3746 13.0333 37.3346 13.0433 37.2846 13.0633C36.2446 13.6233 35.1746 14.0233 34.0346 14.3133C33.9446 14.3333 33.8746 14.3133 33.8146 14.2533C33.7246 14.1433 33.6346 14.0433 33.5346 13.9633C33.0546 13.5533 32.5346 13.2333 31.9546 12.9933C31.1946 12.6833 30.3546 12.5533 29.5346 12.6033C28.7346 12.6533 27.9546 12.8833 27.2446 13.2533C26.5346 13.6233 25.8946 14.1433 25.3946 14.7633C24.8746 15.4033 24.4846 16.1733 24.2846 16.9733C24.0946 17.7533 24.1146 18.5233 24.2246 19.3133C24.2446 19.4433 24.2246 19.4633 24.1146 19.4433C19.6446 18.7733 15.9346 17.1833 12.9346 13.7533C12.8046 13.6033 12.7346 13.6033 12.6246 13.7633C11.3046 15.7333 11.9446 18.9033 13.5946 20.4633C13.8146 20.6733 14.0346 20.8833 14.2846 21.0633C14.1946 21.0833 13.1046 20.9633 12.1246 20.4633C11.9946 20.3833 11.9246 20.4233 11.9146 20.5733C11.9046 20.7833 11.9146 20.9833 11.9546 21.2133C12.2046 23.2133 13.5946 25.0633 15.4846 25.7833C15.7146 25.8733 15.9546 25.9633 16.2046 26.0033C15.7746 26.0933 15.3246 26.1633 14.0846 26.0733C13.9346 26.0433 13.8746 26.1233 13.9346 26.2733C14.8646 28.8133 16.8746 29.5633 18.3846 29.9933C18.5846 30.0333 18.7846 30.0333 18.9946 30.0733C18.9846 30.0933 18.9746 30.0933 18.9546 30.1133C18.4546 30.8733 16.7246 31.4433 15.9146 31.7233C14.4446 32.2333 12.8546 32.4633 11.3046 32.3133C11.0546 32.2733 11.0046 32.2833 10.9346 32.3133C10.8646 32.3533 10.9346 32.4133 11.0046 32.4833C11.3146 32.6933 11.6346 32.8733 11.9646 33.0533C12.9446 33.5733 13.9746 33.9933 15.0446 34.2833C20.5846 35.8133 26.8246 34.6933 30.9846 30.5533C34.2546 27.3033 35.3946 22.8333 35.3946 18.3433C35.3946 18.1633 35.6046 18.0733 35.7246 17.9833C36.5746 17.3433 37.2646 16.5833 37.8946 15.7233C38.0346 15.5333 38.0346 15.3633 38.0346 15.2933V15.2733C38.0346 15.2033 38.0346 15.2233 37.9246 15.2733Z" fill="#6D6D6D"/>
</svg>
