<svg width="49" height="48" viewBox="0 0 49 48" fill="none" xmlns="http://www.w3.org/2000/svg">
<path d="M10.9049 37.475L12.8749 30.135C11.7649 28.125 11.1749 25.875 11.1749 23.595C11.1749 16.125 17.2549 10.045 24.7249 10.045C32.1949 10.045 38.2749 16.125 38.2749 23.595C38.2749 31.065 32.1949 37.145 24.7249 37.145C22.4849 37.145 20.2649 36.575 18.2849 35.505L10.9149 37.485L10.9049 37.475ZM18.6449 32.755L19.1049 33.035C20.8049 34.055 22.7449 34.585 24.7149 34.585C30.7749 34.585 35.7049 29.655 35.7049 23.595C35.7049 17.535 30.7749 12.605 24.7149 12.605C18.6549 12.605 13.7249 17.535 13.7249 23.595C13.7249 25.595 14.2849 27.565 15.3349 29.295L15.6149 29.765L14.5149 33.865L18.6349 32.765L18.6449 32.755Z" fill="#6D6D6D"/>
<path fill-rule="evenodd" clip-rule="evenodd" d="M29.7548 25.475C29.1948 25.145 28.4748 24.765 27.8148 25.035C27.3148 25.245 26.9849 26.035 26.6649 26.435C26.4949 26.645 26.2949 26.675 26.0449 26.575C24.1549 25.825 22.7049 24.555 21.6649 22.815C21.4849 22.545 21.5149 22.335 21.7349 22.085C22.0549 21.715 22.4449 21.295 22.5349 20.795C22.6249 20.295 22.3849 19.705 22.1749 19.265C21.9149 18.695 21.6149 17.885 21.0449 17.565C20.5249 17.265 19.8349 17.435 19.3649 17.815C18.5549 18.475 18.1648 19.505 18.1848 20.515C18.1848 20.805 18.2249 21.095 18.2949 21.375C18.4549 22.045 18.7649 22.675 19.1149 23.275C19.3749 23.725 19.6649 24.165 19.9749 24.585C20.9849 25.955 22.2448 27.155 23.7048 28.045C24.4348 28.495 25.2148 28.885 26.0248 29.155C26.9348 29.455 27.7449 29.765 28.7349 29.585C29.7649 29.385 30.7848 28.755 31.1848 27.755C31.3048 27.465 31.3649 27.135 31.2949 26.825C31.1549 26.185 30.2848 25.805 29.7648 25.495L29.7548 25.475Z" fill="#6D6D6D"/>
</svg>
